<svg xmlns="http://www.w3.org/2000/svg" viewBox="0 0 390.73 652.62"><g id="Layer_2" data-name="Layer 2"><g id="icon_line_sketch" data-name="icon line sketch"><path d="M195.37,0S-119.84,115.71,50.5,652.62l49-28.28s-29.82-79.55-40.19-183.2l102.36,72v-80L56,357.86c.39-15.46,1.37-31.11,3.1-46.79a443.55,443.55,0,0,1,11.21-65.45l125.11,87.1,125.1-87.1a443.54,443.54,0,0,1,11.22,65.45c1.72,15.68,2.71,31.33,3.1,46.79L229.11,433.13v80l102.36-72c-10.38,103.65-40.2,183.2-40.2,183.2l49,28.28C510.58,115.71,195.37,0,195.37,0Zm0,260.37L90.79,186.19q6-13.41,13.13-25.93,5.7-10.06,12-19.47a.73.73,0,0,0,.09-.13c20-31,46-52,79.34-76.53,33.35,24.55,59.33,45.52,79.33,76.53a.73.73,0,0,0,.09.13q6.33,9.42,12,19.47,7.1,12.53,13.13,25.93Z"/></g></g></svg>